<?xml version="1.0" encoding="UTF-8" standalone="no"?>
<svg
   viewBox="0 0 20 20"
   width="20"
   height="20"
   version="1.1"
   id="svg4"
   xmlns="http://www.w3.org/2000/svg"
   xmlns:svg="http://www.w3.org/2000/svg">

  <path
     d="M 4.2173886,3.5066778 C 3.995263,3.5093417 3.8653643,3.641541 3.7324133,3.774833 l -0.0504,0.15046 C 3.5622667,4.282777 4.063495,4.590498 4.3300791,4.8564003 L 9.2776826,9.713008 4.2285533,14.511981 C 3.9552858,14.77171 3.269228,15.132392 3.5358121,15.398294 l 0.4495614,0.512702 c 0.2485571,0.283467 0.6879154,-0.434851 0.9538177,-0.701435 l 5.0610158,-4.790719 5.382226,5.34938 c 0.755735,0.448215 0.415806,0.62038 0.681708,0.353793 l 0.462593,-0.359601 c 0.297651,-0.231382 -0.260104,-0.624348 -0.526688,-0.89025 L 10.699158,9.5600649 16.209506,4.5283745 c 0.266584,-0.2659023 0.29495,-0.2241828 0.04684,-0.5603807 L 15.925402,3.6871523 C 15.637947,3.4432161 15.345716,3.8807709 15.079814,4.147355 L 10.005635,8.7909931 4.9225929,3.9835084 C 4.7327073,3.8039167 4.3977981,3.5045142 4.2173886,3.5066778 Z"
     id="path2"
     style="stroke-width:0.681801" />
</svg>
