<?xml version="1.0" encoding="UTF-8" standalone="no"?>
<!-- Created with Inkscape (http://www.inkscape.org/) -->

<svg
   width="106.00475mm"
   height="76.93132mm"
   viewBox="0 0 106.00475 76.93132"
   version="1.1"
   id="svg5"
   xmlns="http://www.w3.org/2000/svg"
   xmlns:svg="http://www.w3.org/2000/svg">
  <defs
     id="defs2" />
  <g
     id="layer1"
     transform="translate(-56.562276,-119.00103)">
    <g
       id="Logo_1_"
       transform="matrix(0.26458333,0,0,0.26458333,90.710479,118.60485)"
       style="fill:#000000">
	<path
   id="white_background"
   class="st0"
   d="m 221.95,51.29 c 0.15,2.17 0.15,4.34 0.15,6.53 0,66.73 -50.8,143.69 -143.69,143.69 v -0.04 C 50.97,201.51 24.1,193.65 1,178.83 c 3.99,0.48 8,0.72 12.02,0.73 22.74,0.02 44.83,-7.61 62.72,-21.66 -21.61,-0.41 -40.56,-14.5 -47.18,-35.07 7.57,1.46 15.37,1.16 22.8,-0.87 C 27.8,117.2 10.85,96.5 10.85,72.46 c 0,-0.22 0,-0.43 0,-0.64 7.02,3.91 14.88,6.08 22.92,6.32 C 11.58,63.31 4.74,33.79 18.14,10.71 c 25.64,31.55 63.47,50.73 104.08,52.76 -4.07,-17.54 1.49,-35.92 14.61,-48.25 20.34,-19.12 52.33,-18.14 71.45,2.19 11.31,-2.23 22.15,-6.38 32.07,-12.26 -3.77,11.69 -11.66,21.62 -22.2,27.93 10.01,-1.18 19.79,-3.86 29,-7.95 -6.78,10.16 -15.32,19.01 -25.2,26.16 z"
   style="fill:#000000" />

</g>
    <g
       id="g53026"
       transform="matrix(0.14667704,0,0,0.14667704,56.562269,122.01927)">
      <path
         d="M 377.406,160.981 C 372.323,112.07 346.313,68.461 304.222,38.127 259.004,5.538 200.457,-6.936 147.603,4.807 97.354,15.971 53.256,48.312 26.571,93.491 -0.122,138.731 -7.098,192.982 7.436,242.39 c 7.832,26.66 21.729,51.712 40.15,72.51 18.594,20.972 41.904,37.722 67.472,48.459 23.579,9.888 48.628,14.797 73.653,14.797 34.128,-0.001 68.115,-9.121 97.949,-27.098 l -21.092,-35.081 c -40.578,24.451 -90.887,28.029 -134.652,9.66 C 90.633,308.677 59.157,273.254 46.705,230.876 35.369,192.281 40.859,149.783 61.83,114.29 82.752,78.823 117.256,53.489 156.452,44.757 c 41.644,-9.225 87.948,0.669 123.857,26.566 32.502,23.394 52.497,56.769 56.363,93.907 2.515,23.979 0.31,42.891 -6.526,56.226 -14.487,28.192 -35.526,28.36 -43.873,27.132 -0.283,-0.041 -0.476,-0.082 -0.65,-0.117 -2.396,-3.709 -2.091,-17.489 -1.974,-23.473 0.044,-2.332 0.084,-4.572 0.084,-6.664 v -112.06 h -31.349 c -3.998,-3.278 -8.225,-6.251 -12.674,-8.921 -17.076,-10.159 -36.858,-15.552 -57.255,-15.552 -29.078,0 -56.408,10.597 -76.896,29.824 -32.537,30.543 -42.63,80.689 -24.551,122.023 8.578,19.62 23.065,35.901 41.876,47.066 17.611,10.434 38.182,15.972 59.47,15.972 24.394,0 46.819,-6.735 64.858,-19.492 1.915,-1.342 3.813,-2.79 5.626,-4.233 6.431,8.805 15.811,14.4 27.464,16.114 16.149,2.408 32.299,-0.259 46.784,-7.668 16.453,-8.419 29.715,-22.311 39.439,-41.271 10.684,-20.79 14.253,-46.676 10.881,-79.155 z M 242.33,224.538 c -0.891,1.283 -2.229,2.907 -2.961,3.803 -0.599,0.778 -1.151,1.46 -1.643,2.073 -3.868,4.982 -8.597,9.48 -14.113,13.374 -11.26,7.943 -25.152,11.964 -41.257,11.964 -28.968,0 -53.462,-14.75 -63.846,-38.544 -11.258,-25.69 -5.071,-56.854 15.035,-75.692 12.7,-11.95 30.538,-18.784 48.911,-18.784 13.028,0 25.56,3.375 36.268,9.788 6.831,4.072 12.861,9.337 17.9,15.719 0.497,0.613 1.082,1.322 1.724,2.094 0.952,1.135 2.812,3.438 3.981,5.092 v 69.113 z"
         id="path52973" />
      <g
         id="g52975">
</g>
      <g
         id="g52977">
</g>
      <g
         id="g52979">
</g>
      <g
         id="g52981">
</g>
      <g
         id="g52983">
</g>
      <g
         id="g52985">
</g>
      <g
         id="g52987">
</g>
      <g
         id="g52989">
</g>
      <g
         id="g52991">
</g>
      <g
         id="g52993">
</g>
      <g
         id="g52995">
</g>
      <g
         id="g52997">
</g>
      <g
         id="g52999">
</g>
      <g
         id="g53001">
</g>
      <g
         id="g53003">
</g>
    </g>
    <g
       id="g53041"
       transform="matrix(1.391089,0,0,1.391089,106.92346,140.13685)">
      <path
         class="st0"
         d="M 16.7,39.8 C 7.2,38.1 0,29.9 0,20 0,9 9,0 20,0 31,0 40,9 40,20 40,29.9 32.8,38.1 23.3,39.8 l -1.1,-0.9 h -4.4 z"
         id="path9"
         style="fill:#000000;fill-opacity:0.00249376" />
      <path
         class="st1"
         d="M 27.8,25.6 28.7,20 h -5.3 v -3.9 c 0,-1.6 0.6,-2.8 3,-2.8 H 29 V 8.2 C 27.6,8 26,7.8 24.6,7.8 20,7.8 16.8,10.6 16.8,15.6 V 20 h -5 v 5.6 h 5 v 14.1 c 1.1,0.2 2.2,0.3 3.3,0.3 1.1,0 2.2,-0.1 3.3,-0.3 V 25.6 Z"
         id="path11"
         style="fill:#000000;fill-opacity:1" />
    </g>
    <g
       id="g53206"
       transform="matrix(0.09099281,0,0,0.09099281,75.749279,150.23576)"
       style="fill:#000000">
      <g
         id="Edges"
         style="fill:#000000" />
      <g
         id="Symbol"
         style="fill:#000000">
        <g
           id="g53180"
           style="fill:#000000">
          <radialGradient
             cx="56.350101"
             cy="19.217899"
             gradientTransform="matrix(0.9986,-0.05233596,0.04448556,0.8488,-36.9742,443.8014)"
             gradientUnits="userSpaceOnUse"
             id="SVGID_1_"
             r="711.33502">
            <stop
               offset="0"
               style="stop-color:#FED576"
               id="stop53156" />
            <stop
               offset="0.2634"
               style="stop-color:#F47133"
               id="stop53158" />
            <stop
               offset="0.6091"
               style="stop-color:#BC3081"
               id="stop53160" />
            <stop
               offset="1"
               style="stop-color:#4C63D2"
               id="stop53162" />
          </radialGradient>
          <path
             class="st0"
             d="M 96.1,23.2 C 79.9,29.5 66.2,37.9 52.5,51.6 38.8,65.2 30.4,79 24.1,95.1 18,110.7 13.9,128.6 12.7,154.8 c -1.2,26.2 -1.5,34.6 -1.5,101.4 0,66.8 0.3,75.2 1.5,101.4 1.2,26.2 5.4,44.1 11.4,59.7 6.3,16.2 14.7,29.9 28.4,43.6 13.7,13.7 27.4,22.1 43.6,28.4 15.6,6.1 33.5,10.2 59.7,11.4 26.2,1.2 34.6,1.5 101.4,1.5 66.8,0 75.2,-0.3 101.4,-1.5 26.2,-1.2 44.1,-5.4 59.7,-11.4 16.2,-6.3 29.9,-14.7 43.6,-28.4 13.7,-13.7 22.1,-27.4 28.4,-43.6 6.1,-15.6 10.2,-33.5 11.4,-59.7 1.2,-26.2 1.5,-34.6 1.5,-101.4 0,-66.8 -0.3,-75.2 -1.5,-101.4 -1.2,-26.2 -5.4,-44.1 -11.4,-59.7 C 484,79 475.6,65.2 462,51.6 448.3,37.9 434.6,29.5 418.4,23.2 402.8,17.1 384.9,13 358.7,11.8 332.5,10.6 324.1,10.3 257.3,10.3 c -66.8,0 -75.2,0.3 -101.4,1.5 -26.3,1.1 -44.2,5.3 -59.8,11.4 z M 356.6,56 c 24,1.1 37,5.1 45.7,8.5 11.5,4.5 19.7,9.8 28.3,18.4 8.6,8.6 13.9,16.8 18.4,28.3 3.4,8.7 7.4,21.7 8.5,45.7 1.2,25.9 1.4,33.7 1.4,99.4 0,65.7 -0.3,73.5 -1.4,99.4 -1.1,24 -5.1,37 -8.5,45.7 -4.5,11.5 -9.8,19.7 -18.4,28.3 -8.6,8.6 -16.8,13.9 -28.3,18.4 -8.7,3.4 -21.7,7.4 -45.7,8.5 -25.9,1.2 -33.7,1.4 -99.4,1.4 -65.7,0 -73.5,-0.3 -99.4,-1.4 -24,-1.1 -37,-5.1 -45.7,-8.5 C 100.6,443.6 92.4,438.3 83.8,429.7 75.2,421.1 69.9,412.9 65.4,401.4 62,392.7 58,379.7 56.9,355.7 55.7,329.8 55.5,322 55.5,256.3 c 0,-65.7 0.3,-73.5 1.4,-99.4 1.1,-24 5.1,-37 8.5,-45.7 4.5,-11.5 9.8,-19.7 18.4,-28.3 8.6,-8.6 16.8,-13.9 28.3,-18.4 8.7,-3.4 21.7,-7.4 45.7,-8.5 25.9,-1.2 33.7,-1.4 99.4,-1.4 65.7,0 73.5,0.2 99.4,1.4 z"
             id="path53165"
             style="fill:#000000" />
          <radialGradient
             cx="154.0732"
             cy="134.55009"
             gradientTransform="matrix(0.9986,-0.05233596,0.04448556,0.8488,-24.3617,253.2946)"
             gradientUnits="userSpaceOnUse"
             id="SVGID_2_"
             r="365.28009">
            <stop
               offset="0"
               style="stop-color:#FED576"
               id="stop53167" />
            <stop
               offset="0.2634"
               style="stop-color:#F47133"
               id="stop53169" />
            <stop
               offset="0.6091"
               style="stop-color:#BC3081"
               id="stop53171" />
            <stop
               offset="1"
               style="stop-color:#4C63D2"
               id="stop53173" />
          </radialGradient>
          <path
             class="st1"
             d="m 130.9,256.3 c 0,69.8 56.6,126.3 126.3,126.3 69.7,0 126.3,-56.6 126.3,-126.3 C 383.5,186.6 327,130 257.2,130 187.4,130 130.9,186.5 130.9,256.3 Z m 208.3,0 c 0,45.3 -36.7,82 -82,82 -45.3,0 -82,-36.7 -82,-82 0,-45.3 36.7,-82 82,-82 45.3,0 82,36.7 82,82 z"
             id="path53176"
             style="fill:#000000" />
          <circle
             class="st2"
             cx="388.60001"
             cy="125"
             r="29.5"
             id="circle53178"
             style="fill:#000000" />
        </g>
      </g>
    </g>
  </g>
  <style
     type="text/css"
     id="style52961">
	.st0{fill:#1D9BF0;}
</style>
  <style
     type="text/css"
     id="style2">
	.st0{fill:url(#SVGID_1_);}
	.st1{fill:#FFFFFF;}
</style>
  <style
     type="text/css"
     id="style53043">
	.st0{fill:#1D9BF0;}
</style>
  <style
     type="text/css"
     id="style53153">
	.st0{fill:url(#SVGID_1_);}
	.st1{fill:url(#SVGID_2_);}
	.st2{fill:#654C9F;}
</style>
</svg>
