<?xml version="1.0" encoding="UTF-8" standalone="no"?>
<!-- Generator: Adobe Illustrator 18.0.0, SVG Export Plug-In . SVG Version: 6.00 Build 0)  -->

<svg
   version="1.1"
   id="Capa_1"
   x="0px"
   y="0px"
   viewBox="0 0 100.00001 99.748561"
   xml:space="preserve"
   sodipodi:docname="email.svg"
   width="100.00001"
   height="99.748558"
   inkscape:version="1.3.2 (091e20e, 2023-11-25)"
   xmlns:inkscape="http://www.inkscape.org/namespaces/inkscape"
   xmlns:sodipodi="http://sodipodi.sourceforge.net/DTD/sodipodi-0.dtd"
   xmlns="http://www.w3.org/2000/svg"
   xmlns:svg="http://www.w3.org/2000/svg"><defs
   id="defs15" /><sodipodi:namedview
   id="namedview15"
   pagecolor="#ffffff"
   bordercolor="#000000"
   borderopacity="0.25"
   inkscape:showpageshadow="2"
   inkscape:pageopacity="0.0"
   inkscape:pagecheckerboard="0"
   inkscape:deskcolor="#d1d1d1"
   inkscape:zoom="1.0263755"
   inkscape:cx="111.07046"
   inkscape:cy="42.8693"
   inkscape:window-width="1648"
   inkscape:window-height="811"
   inkscape:window-x="0"
   inkscape:window-y="43"
   inkscape:window-maximized="0"
   inkscape:current-layer="Capa_1" />
<path
   d="M 99.676169,42.390766 C 98.333704,29.472949 91.464239,17.955436 80.347643,9.9439653 68.405179,1.3369288 52.942411,-1.9575622 38.983213,1.1438654 25.712019,4.0923741 14.065357,12.633911 7.0176183,24.566075 c -7.04985164,11.948274 -8.8922734,26.276431 -5.0537186,39.32551 2.0684987,7.041136 5.7388164,13.657586 10.6039613,19.150517 4.910836,5.538886 11.067208,9.962706 17.819937,12.79844 6.227418,2.611506 12.843075,3.908019 19.452393,3.908019 9.013499,-2.7e-4 17.989759,-2.408938 25.869176,-7.156819 l -5.570579,-9.265195 c -10.717,6.45772 -24.004041,7.402701 -35.562755,2.551289 C 23.936945,81.398554 15.623862,72.043034 12.335181,60.850639 9.341246,50.657366 10.791202,39.433278 16.329824,30.05927 21.855505,20.692129 30.968309,14.001201 41.320311,11.695005 c 10.998539,-2.436402 23.227825,0.176688 32.711702,7.01631 8.584059,6.178557 13.864911,14.993182 14.885955,24.801649 0.664233,6.33306 0.08187,11.327883 -1.723573,14.849771 -3.826142,7.445751 -9.382723,7.490121 -11.587238,7.165796 -0.07474,-0.01083 -0.125716,-0.02166 -0.171671,-0.0309 -0.632804,-0.979579 -0.552251,-4.618996 -0.52135,-6.199422 0.01162,-0.615901 0.02219,-1.207505 0.02219,-1.76002 V 27.942175 h -8.279541 c -1.055907,-0.865748 -2.172294,-1.650943 -3.347313,-2.356113 -4.509919,-2.683079 -9.734516,-4.107417 -15.12154,-4.107417 -7.67975,0 -14.897839,2.798759 -20.308897,7.876776 -8.593302,8.066669 -11.258951,21.310661 -6.484131,32.227327 2.265524,5.181811 6.091666,9.481764 11.059813,12.430536 4.651217,2.75571 10.084196,4.218343 15.70654,4.218343 6.442666,0 12.365302,-1.778771 17.129558,-5.148005 0.505768,-0.354434 1.007046,-0.736863 1.485875,-1.117972 1.698483,2.325477 4.175821,3.803164 7.253479,4.255847 4.265091,0.635973 8.530445,-0.0684 12.356058,-2.025185 4.34538,-2.223531 7.847988,-5.892528 10.416181,-10.900028 2.821736,-5.490818 3.764342,-12.327534 2.873766,-20.905518 z M 64.001432,59.176718 c -0.235321,0.338851 -0.588699,0.767764 -0.782026,1.004405 -0.158201,0.205477 -0.303989,0.385599 -0.433931,0.547497 -1.021572,1.31579 -2.270541,2.50375 -3.727365,3.532189 -2.973863,2.097815 -6.64286,3.159796 -10.896329,3.159796 -7.650699,0 -14.119776,-3.895602 -16.86228,-10.179803 -2.973335,-6.784951 -1.339295,-15.015632 3.970873,-19.99091 3.35418,-3.156099 8.06535,-4.961017 12.917817,-4.961017 3.440808,0 6.750617,0.891367 9.578692,2.585095 1.804126,1.075451 3.396701,2.465983 4.727545,4.151524 0.131262,0.161898 0.285765,0.349151 0.455323,0.553043 0.251431,0.299764 0.742673,0.908006 1.051416,1.344841 v 18.25334 z"
   id="path1"
   style="fill:#4d4d4d;stroke-width:0.264109" />
<g
   id="g1"
   transform="translate(-4.5698643e-5,-0.47595874)">
</g>
<g
   id="g2"
   transform="translate(-4.5698643e-5,-0.47595874)">
</g>
<g
   id="g3"
   transform="translate(-4.5698643e-5,-0.47595874)">
</g>
<g
   id="g4"
   transform="translate(-4.5698643e-5,-0.47595874)">
</g>
<g
   id="g5"
   transform="translate(-4.5698643e-5,-0.47595874)">
</g>
<g
   id="g6"
   transform="translate(-4.5698643e-5,-0.47595874)">
</g>
<g
   id="g7"
   transform="translate(-4.5698643e-5,-0.47595874)">
</g>
<g
   id="g8"
   transform="translate(-4.5698643e-5,-0.47595874)">
</g>
<g
   id="g9"
   transform="translate(-4.5698643e-5,-0.47595874)">
</g>
<g
   id="g10"
   transform="translate(-4.5698643e-5,-0.47595874)">
</g>
<g
   id="g11"
   transform="translate(-4.5698643e-5,-0.47595874)">
</g>
<g
   id="g12"
   transform="translate(-4.5698643e-5,-0.47595874)">
</g>
<g
   id="g13"
   transform="translate(-4.5698643e-5,-0.47595874)">
</g>
<g
   id="g14"
   transform="translate(-4.5698643e-5,-0.47595874)">
</g>
<g
   id="g15"
   transform="translate(-4.5698643e-5,-0.47595874)">
</g>
</svg>
