<?xml version="1.0" encoding="UTF-8" standalone="no"?>
<!-- Generator: Adobe Illustrator 25.0.1, SVG Export Plug-In . SVG Version: 6.00 Build 0)  -->

<svg
   version="1.0"
   id="katman_1"
   x="0px"
   y="0px"
   viewBox="0 0 507.39999 404"
   xml:space="preserve"
   sodipodi:docname="looksrare.svg"
   width="507.39999"
   height="404"
   inkscape:version="1.1.1 (3bf5ae0d25, 2021-09-20)"
   xmlns:inkscape="http://www.inkscape.org/namespaces/inkscape"
   xmlns:sodipodi="http://sodipodi.sourceforge.net/DTD/sodipodi-0.dtd"
   xmlns="http://www.w3.org/2000/svg"
   xmlns:svg="http://www.w3.org/2000/svg"><defs
   id="defs15" /><sodipodi:namedview
   id="namedview13"
   pagecolor="#ffffff"
   bordercolor="#666666"
   borderopacity="1.0"
   inkscape:pageshadow="2"
   inkscape:pageopacity="0.0"
   inkscape:pagecheckerboard="0"
   showgrid="false"
   fit-margin-top="0"
   fit-margin-left="0"
   fit-margin-right="0"
   fit-margin-bottom="0"
   inkscape:zoom="1.355"
   inkscape:cx="254.24354"
   inkscape:cy="201.84502"
   inkscape:window-width="1920"
   inkscape:window-height="1007"
   inkscape:window-x="0"
   inkscape:window-y="0"
   inkscape:window-maximized="1"
   inkscape:current-layer="katman_1" />
<style
   type="text/css"
   id="style2">
	.st0{fill:#2DE370;}
	.st1{fill:#121619;}
	.st2{fill-rule:evenodd;clip-rule:evenodd;fill:#FFFFFF;}
</style>
<path
   class="st0"
   d="M 152.3,0 0,151.5 253.7,404 507.4,151.6 355.1,0 Z"
   id="path4" />
<path
   class="st1"
   d="m 145.2,98.4 c 59.9,-60 157.1,-60 217,0 L 414,150.2 362.2,202 c -59.9,60 -157.1,60 -217,0 L 93.4,150.2 Z"
   id="path6" />
<path
   class="st2"
   d="m 253.7,213.7 c -35,0 -63.4,-27.7 -63.4,-61.8 0,-34.1 28.4,-61.8 63.4,-61.8 35,0 63.4,27.7 63.4,61.8 0,34.1 -28.3,61.8 -63.4,61.8 z"
   id="path8" />
<path
   class="st1"
   d="m 253.7,176.9 c -14.7,0 -26.7,-12 -26.7,-26.7 0,-14.8 12,-26.7 26.7,-26.7 14.7,0 26.7,12 26.7,26.7 0,14.8 -11.9,26.7 -26.7,26.7 z"
   id="path10" />
</svg>
