<?xml version="1.0" encoding="UTF-8" standalone="no"?>
<svg
   width="100"
   height="90.000061"
   fill="none"
   viewBox="0 0 100 90.000061"
   version="1.1"
   id="svg3"
   sodipodi:docname="opensea-bw.svg"
   inkscape:version="1.3.2 (091e20e, 2023-11-25)"
   xmlns:inkscape="http://www.inkscape.org/namespaces/inkscape"
   xmlns:sodipodi="http://sodipodi.sourceforge.net/DTD/sodipodi-0.dtd"
   xmlns="http://www.w3.org/2000/svg"
   xmlns:svg="http://www.w3.org/2000/svg">
  <defs
     id="defs3" />
  <sodipodi:namedview
     id="namedview3"
     pagecolor="#ffffff"
     bordercolor="#000000"
     borderopacity="0.25"
     inkscape:showpageshadow="2"
     inkscape:pageopacity="0.0"
     inkscape:pagecheckerboard="0"
     inkscape:deskcolor="#d1d1d1"
     inkscape:zoom="2.36"
     inkscape:cx="49.152542"
     inkscape:cy="48.516949"
     inkscape:window-width="1696"
     inkscape:window-height="966"
     inkscape:window-x="0"
     inkscape:window-y="43"
     inkscape:window-maximized="0"
     inkscape:current-layer="svg3" />
  <path
     fill="#fff"
     d="M 5.9500939,51.391692 6.3000049,50.841601 27.400056,17.83325 c 0.308381,-0.483256 1.033346,-0.433292 1.266619,0.09166 3.525057,7.899987 6.566696,17.725049 5.141749,23.841744 -0.608328,2.516692 -2.274984,5.92495 -4.150093,9.074952 -0.241547,0.458436 -0.508238,0.908436 -0.791638,1.341728 -0.133345,0.200018 -0.358345,0.316655 -0.600054,0.316655 H 6.5666949 c -0.583345,0 -0.924982,-0.63331 -0.616601,-1.108292 z"
     id="path2"
     style="fill:#4d4d4d;stroke-width:1.62221" />
  <path
     fill="#fff"
     d="m 100,57.525096 v 5.224967 c 0,0.299946 -0.183307,0.566637 -0.449997,0.683274 -1.633243,0.699982 -7.224993,3.266639 -9.549943,6.500023 -5.93338,8.258333 -10.46664,20.0667 -20.600082,20.0667 H 27.124929 C 12.141736,90.00006 0,77.816801 0,62.783319 V 62.300063 C 0,61.900027 0.324928,61.575098 0.72496395,61.575098 H 24.291744 c 0.466547,0 0.808184,0.433292 0.766655,0.891566 -0.166762,1.53331 0.116637,3.100038 0.841602,4.524985 1.399965,2.841783 4.299985,4.616802 7.433278,4.616802 h 11.666753 v -9.10837 H 33.466625 c -0.591619,0 -0.941529,-0.683436 -0.599893,-1.166691 0.12491,-0.191745 0.266691,-0.391601 0.416583,-0.616601 1.091746,-1.55002 2.650038,-3.958349 4.200057,-6.700041 1.058328,-1.849966 2.083239,-3.825003 2.908294,-5.808314 0.166763,-0.358345 0.299946,-0.725127 0.433291,-1.083472 0.225,-0.63331 0.458436,-1.224929 0.625037,-1.816548 0.166763,-0.500126 0.299946,-1.025073 0.433291,-1.516764 0.391764,-1.683364 0.558364,-3.466657 0.558364,-5.316622 0,-0.724965 -0.03325,-1.483347 -0.09993,-2.208311 -0.03342,-0.791637 -0.133345,-1.583437 -0.233435,-2.375074 -0.06667,-0.699982 -0.191583,-1.391692 -0.324929,-2.116656 -0.1666,-1.058328 -0.400036,-2.108221 -0.666727,-3.166711 l -0.09165,-0.399874 c -0.200019,-0.725127 -0.366619,-1.416674 -0.599893,-2.141638 -0.658454,-2.275146 -1.416673,-4.49173 -2.216746,-6.566696 -0.291673,-0.825055 -0.625037,-1.616692 -0.9584,-2.408329 C 36.75841,15.900066 36.258283,14.816755 35.80001,13.791683 35.566736,13.324974 35.366718,12.899955 35.1667,12.466664 34.9417,11.974973 34.708426,11.483282 34.474991,11.016735 34.30839,10.658389 34.116645,10.325025 33.9833,9.991662 L 32.558353,7.358333 C 32.358335,6.999987 32.691698,6.574969 33.083299,6.683332 l 8.916787,2.416602 h 0.02498 c 0.01655,0 0.02498,0.0084 0.03326,0.0084 l 1.174964,0.324928 1.291764,0.366781 0.474982,0.133183 V 4.633349 C 45.000032,2.074965 47.050016,0 49.583417,0 c 1.26662,0 2.416602,0.516673 3.241657,1.358274 0.824893,0.841764 1.341566,1.991746 1.341566,3.275075 v 7.866732 l 0.950126,0.266529 c 0.07495,0.02514 0.149892,0.0584 0.216565,0.108363 0.233436,0.175036 0.566637,0.433292 0.991656,0.750109 0.333363,0.266529 0.691709,0.591619 1.125,0.924983 0.85831,0.691547 1.883383,1.583274 3.008384,2.608347 0.299946,0.258255 0.591619,0.524946 0.85831,0.791637 1.450091,1.350001 3.075056,2.933275 4.625075,4.683313 0.433292,0.491691 0.85831,0.991655 1.291602,1.516601 0.433291,0.533382 0.891727,1.058328 1.291601,1.583437 0.525109,0.699982 1.091746,1.424947 1.583437,2.183329 0.233273,0.358345 0.499964,0.724964 0.724964,1.08331 0.63331,0.958238 1.191674,1.950055 1.725056,2.941711 0.225,0.458273 0.458273,0.958238 0.658291,1.449929 0.591619,1.325019 1.058329,2.67502 1.358275,4.025021 0.09165,0.291673 0.158327,0.608327 0.191745,0.891727 v 0.06667 c 0.09993,0.399874 0.133345,0.824892 0.1666,1.258184 0.133346,1.383418 0.06667,2.766674 -0.233273,4.158366 -0.125072,0.591781 -0.291673,1.149983 -0.491691,1.741764 -0.200018,0.566637 -0.400037,1.158256 -0.658292,1.71662 -0.499964,1.158256 -1.091746,2.316674 -1.791728,3.399984 -0.225,0.400037 -0.491691,0.825055 -0.758382,1.225091 -0.291673,0.424857 -0.591619,0.824893 -0.85831,1.216656 -0.366619,0.499964 -0.75822,1.024911 -1.158256,1.49162 -0.358346,0.491691 -0.724964,0.983382 -1.125001,1.416673 -0.558364,0.658292 -1.091745,1.283329 -1.650109,1.883383 -0.333201,0.391601 -0.691547,0.791637 -1.058328,1.149983 -0.358184,0.399874 -0.724965,0.75822 -1.058328,1.091583 -0.558202,0.558364 -1.024911,0.991656 -1.416674,1.350001 l -0.916547,0.841764 c -0.133346,0.116636 -0.308382,0.183309 -0.491691,0.183309 H 54.16664 v 9.10837 h 8.933333 c 2.00002,0 3.900111,-0.708418 5.433422,-2.008455 0.524946,-0.458273 2.816638,-2.441584 5.524914,-5.433259 0.09165,-0.10009 0.208453,-0.175036 0.341799,-0.208291 L 99.07502,56.825113 C 99.533453,56.691768 100,57.041678 100,57.525096 Z"
     id="path3"
     style="fill:#4d4d4d;stroke-width:1.62221" />
</svg>
